<?xml version="1.0" encoding="UTF-8"?>
<svg xmlns="http://www.w3.org/2000/svg" xmlns:xlink="http://www.w3.org/1999/xlink" width="324pt" height="130pt" viewBox="0 0 324 130" version="1.1">
<g id="surface28">
<path style="fill:none;stroke-width:1.44;stroke-linecap:butt;stroke-linejoin:miter;stroke:rgb(36.84082%,50.67749%,70.979309%);stroke-opacity:1;stroke-miterlimit:3.25;" d="M 86.964844 69.800781 L 89.300781 69.800781 L 90.027344 69.796875 L 93.988281 69.796875 L 94.34375 69.792969 L 96.472656 69.792969 L 97.183594 69.789062 L 97.894531 69.789062 L 98.601562 69.785156 L 99.375 69.785156 L 100.144531 69.78125 L 100.527344 69.78125 L 100.914062 69.777344 L 101.875 69.777344 L 102.070312 69.773438 L 102.453125 69.773438 L 103.222656 69.769531 L 103.417969 69.769531 L 103.609375 69.765625 L 103.996094 69.765625 L 104.765625 69.761719 L 104.855469 69.761719 L 104.945312 69.757812 L 105.484375 69.757812 L 106.203125 69.75 L 106.5625 69.75 L 107.640625 69.738281 L 107.820312 69.738281 L 108 69.734375 L 108.359375 69.734375 L 110.515625 69.710938 L 110.613281 69.707031 L 110.710938 69.707031 L 110.90625 69.703125 L 111.292969 69.699219 L 112.074219 69.6875 L 112.171875 69.6875 L 112.269531 69.683594 L 112.464844 69.683594 L 112.851562 69.675781 L 113.632812 69.664062 L 113.730469 69.660156 L 113.824219 69.660156 L 114.410156 69.648438 L 115.1875 69.632812 L 116.746094 69.597656 L 116.84375 69.59375 L 116.9375 69.59375 L 117.128906 69.585938 L 117.511719 69.578125 L 118.277344 69.558594 L 118.371094 69.554688 L 118.46875 69.550781 L 118.660156 69.546875 L 119.042969 69.535156 L 119.804688 69.507812 L 119.902344 69.507812 L 119.996094 69.503906 L 120.1875 69.496094 L 120.570312 69.484375 L 122.867188 69.390625 L 122.953125 69.386719 L 123.222656 69.375 L 123.578125 69.355469 L 124.292969 69.320312 L 124.472656 69.3125 L 124.648438 69.300781 L 125.007812 69.28125 L 125.71875 69.242188 L 125.808594 69.238281 L 125.898438 69.230469 L 126.074219 69.222656 L 126.433594 69.199219 L 127.144531 69.152344 L 128.574219 69.054688 L 128.667969 69.046875 L 128.960938 69.023438 L 130.121094 68.929688 L 130.214844 68.921875 L 130.3125 68.914062 L 130.507812 68.894531 L 130.894531 68.863281 L 131.667969 68.789062 L 131.765625 68.78125 L 131.859375 68.769531 L 132.054688 68.75 L 132.441406 68.710938 L 133.214844 68.628906 L 134.761719 68.449219 L 134.851562 68.441406 L 135.121094 68.40625 L 135.484375 68.359375 L 136.207031 68.265625 L 137.648438 68.058594 L 137.742188 68.042969 L 137.832031 68.027344 L 138.371094 67.945312 L 139.09375 67.828125 L 140.539062 67.574219 L 140.628906 67.558594 L 140.714844 67.539062 L 140.894531 67.507812 L 141.246094 67.441406 L 141.953125 67.300781 L 143.371094 67 L 143.460938 66.980469 L 143.546875 66.960938 L 143.726562 66.921875 L 144.078125 66.839844 L 144.785156 66.675781 L 146.203125 66.320312 L 146.296875 66.292969 L 146.394531 66.269531 L 146.585938 66.21875 L 146.96875 66.113281 L 147.738281 65.902344 L 149.273438 65.445312 L 149.371094 65.414062 L 149.46875 65.386719 L 149.660156 65.324219 L 150.042969 65.203125 L 150.8125 64.949219 L 152.347656 64.417969 L 152.4375 64.382812 L 152.527344 64.351562 L 152.707031 64.285156 L 153.0625 64.152344 L 153.78125 63.882812 L 155.214844 63.308594 L 158.082031 62.058594 L 158.179688 62.015625 L 158.277344 61.96875 L 158.46875 61.878906 L 158.859375 61.695312 L 159.636719 61.320312 L 161.1875 60.539062 L 164.296875 58.851562 L 170.398438 55.109375 L 176.089844 51.234375 L 182.261719 46.855469 L 188.023438 42.871094 L 188.21875 42.738281 L 188.414062 42.609375 L 188.800781 42.351562 L 189.582031 41.839844 L 191.144531 40.84375 L 194.265625 38.953125 L 194.359375 38.898438 L 194.457031 38.84375 L 195.03125 38.515625 L 195.796875 38.089844 L 197.328125 37.265625 L 197.425781 37.214844 L 197.519531 37.164062 L 198.09375 36.871094 L 198.859375 36.488281 L 200.394531 35.757812 L 200.480469 35.71875 L 200.570312 35.675781 L 200.75 35.597656 L 201.109375 35.4375 L 201.824219 35.125 L 203.25 34.535156 L 203.609375 34.394531 L 203.964844 34.253906 L 204.679688 33.988281 L 206.109375 33.488281 L 206.304688 33.425781 L 206.496094 33.363281 L 206.886719 33.238281 L 207.660156 33 L 207.757812 32.96875 L 207.855469 32.941406 L 208.046875 32.886719 L 208.433594 32.773438 L 209.210938 32.566406 L 209.304688 32.539062 L 209.402344 32.515625 L 209.597656 32.464844 L 209.984375 32.367188 L 210.757812 32.183594 L 212.308594 31.859375 L 212.398438 31.839844 L 212.488281 31.824219 L 212.671875 31.789062 L 213.03125 31.722656 L 213.757812 31.601562 L 213.847656 31.585938 L 213.9375 31.574219 L 214.117188 31.546875 L 214.480469 31.492188 L 215.203125 31.394531 L 215.382812 31.371094 L 215.566406 31.347656 L 215.925781 31.304688 L 216.015625 31.296875 L 216.105469 31.285156 L 216.289062 31.265625 L 216.648438 31.230469 L 216.742188 31.222656 L 217.011719 31.199219 L 217.375 31.167969 L 217.554688 31.152344 L 217.734375 31.140625 L 218.097656 31.117188 L 218.183594 31.109375 L 218.273438 31.105469 L 218.453125 31.09375 L 218.539062 31.089844 L 218.628906 31.085938 L 218.804688 31.074219 L 218.984375 31.066406 L 219.160156 31.058594 L 219.25 31.054688 L 219.339844 31.054688 L 219.515625 31.046875 L 219.605469 31.042969 L 219.691406 31.042969 L 219.871094 31.035156 L 219.957031 31.035156 L 220.046875 31.03125 L 220.222656 31.03125 L 220.3125 31.027344 L 220.492188 31.027344 L 220.578125 31.023438 L 221.464844 31.023438 L 221.554688 31.027344 L 221.730469 31.027344 L 221.820312 31.03125 L 221.910156 31.03125 L 221.996094 31.035156 L 222.085938 31.035156 L 222.175781 31.039062 L 222.351562 31.042969 L 222.441406 31.046875 L 222.53125 31.046875 L 222.707031 31.054688 L 222.796875 31.058594 L 222.882812 31.0625 L 223.0625 31.070312 L 223.148438 31.074219 L 223.417969 31.085938 L 223.769531 31.105469 L 223.964844 31.121094 L 224.15625 31.132812 L 224.539062 31.160156 L 224.734375 31.175781 L 224.925781 31.191406 L 225.308594 31.226562 L 225.40625 31.238281 L 225.503906 31.246094 L 225.695312 31.265625 L 226.078125 31.308594 L 226.847656 31.398438 L 226.945312 31.414062 L 227.039062 31.425781 L 227.234375 31.453125 L 227.617188 31.507812 L 228.386719 31.625 L 228.484375 31.640625 L 228.578125 31.65625 L 228.773438 31.691406 L 229.15625 31.757812 L 229.925781 31.902344 L 230.105469 31.941406 L 230.285156 31.976562 L 230.644531 32.050781 L 231.363281 32.210938 L 231.453125 32.234375 L 231.542969 32.253906 L 232.082031 32.382812 L 232.796875 32.566406 L 232.976562 32.613281 L 233.15625 32.664062 L 233.515625 32.761719 L 234.234375 32.96875 L 235.671875 33.417969 L 235.769531 33.449219 L 235.863281 33.480469 L 236.449219 33.679688 L 237.226562 33.953125 L 238.785156 34.546875 L 238.878906 34.585938 L 239.171875 34.703125 L 239.5625 34.863281 L 240.339844 35.195312 L 241.894531 35.894531 L 241.992188 35.9375 L 242.085938 35.980469 L 242.277344 36.074219 L 242.660156 36.253906 L 243.425781 36.628906 L 244.953125 37.414062 L 248.007812 39.113281 L 253.707031 42.691406 L 259.890625 46.964844 L 265.664062 51.058594 L 271.320312 54.925781 L 277.457031 58.710938 L 277.546875 58.761719 L 277.636719 58.816406 L 277.816406 58.917969 L 278.175781 59.117188 L 278.890625 59.515625 L 280.320312 60.285156 L 283.1875 61.714844 L 283.28125 61.761719 L 283.378906 61.808594 L 283.574219 61.898438 L 283.960938 62.078125 L 284.738281 62.433594 L 286.289062 63.105469 L 286.386719 63.144531 L 286.484375 63.1875 L 286.679688 63.265625 L 287.066406 63.425781 L 287.84375 63.734375 L 289.394531 64.324219 L 289.484375 64.355469 L 289.578125 64.386719 L 289.757812 64.453125 L 290.121094 64.582031 L 290.84375 64.832031 L 292.292969 65.308594 L 292.382812 65.339844 L 292.476562 65.367188 L 292.65625 65.421875 L 293.019531 65.535156 L 293.742188 65.75 L 295.191406 66.160156 L 295.371094 66.207031 L 295.546875 66.253906 L 295.902344 66.347656 L 296.613281 66.527344 L 298.035156 66.867188 L 298.125 66.886719 L 298.210938 66.90625 L 298.390625 66.949219 L 298.746094 67.027344 L 299.457031 67.179688 L 300.878906 67.464844 L 300.972656 67.480469 L 301.070312 67.5 L 301.261719 67.535156 L 301.648438 67.609375 L 302.417969 67.746094 L 303.960938 67.996094 L 304.054688 68.011719 L 304.152344 68.027344 L 304.34375 68.054688 L 304.730469 68.113281 L 305.5 68.222656 L 307.042969 68.425781 L 307.402344 68.472656 L 307.761719 68.515625 L 308.480469 68.597656 L 309.921875 68.75 L 310.101562 68.765625 L 310.28125 68.785156 L 310.640625 68.816406 L 311.359375 68.882812 L 312.796875 69.003906 L 313.1875 69.035156 L 313.578125 69.0625 L 314.355469 69.121094 L 314.453125 69.125 L 314.550781 69.132812 L 314.746094 69.144531 L 315.136719 69.171875 L 315.914062 69.222656 L 316.011719 69.226562 L 316.109375 69.234375 L 316.304688 69.242188 L 316.695312 69.265625 L 317.472656 69.308594 L 319.03125 69.386719 L 319.128906 69.390625 L 319.222656 69.394531 L 320.5625 69.449219 L 320.660156 69.453125 L 320.753906 69.457031 L 321.328125 69.480469 L 322.09375 69.503906 L 322.191406 69.507812 L 322.285156 69.511719 L 322.476562 69.519531 L 323.625 69.554688 L 325.15625 69.59375 L 325.246094 69.597656 L 325.332031 69.597656 L 325.511719 69.605469 L 325.871094 69.613281 L 326.582031 69.628906 L 326.671875 69.628906 L 326.761719 69.632812 L 326.941406 69.636719 L 327.296875 69.644531 L 328.011719 69.65625 L 328.101562 69.65625 L 328.1875 69.660156 L 328.367188 69.664062 L 328.726562 69.667969 L 329.4375 69.679688 L 330.867188 69.703125 L 331.058594 69.703125 L 331.253906 69.707031 L 332.414062 69.71875 L 332.511719 69.722656 L 332.800781 69.722656 L 333.960938 69.734375 L 334.058594 69.738281 L 334.351562 69.738281 L 335.511719 69.75 L 335.898438 69.75 L 336.285156 69.753906 L 337.058594 69.757812 L 337.148438 69.761719 L 337.421875 69.761719 L 337.78125 69.765625 L 338.503906 69.769531 L 339.226562 69.769531 L 339.949219 69.773438 L 340.039062 69.773438 L 340.128906 69.777344 L 340.671875 69.777344 L 341.394531 69.78125 L 342.117188 69.78125 L 342.839844 69.785156 L 343.546875 69.785156 L 344.257812 69.789062 L 344.964844 69.789062 L 345.675781 69.792969 L 347.800781 69.792969 L 348.507812 69.796875 L 351.964844 69.796875 L 352.351562 69.800781 L 355.035156 69.800781 " transform="matrix(1,0,0,1,-59,-5)"/>
<path style="fill-rule:nonzero;fill:rgb(36.84082%,50.67749%,70.979309%);fill-opacity:1;stroke-width:0.03;stroke-linecap:square;stroke-linejoin:miter;stroke:rgb(36.84082%,50.67749%,70.979309%);stroke-opacity:1;stroke-miterlimit:3.25;" d="M 88.160156 73.210938 L 87.96875 72.820312 L 87.554688 71.890625 L 87.332031 71.332031 L 87.140625 70.769531 L 87.007812 70.242188 L 86.964844 69.800781 L 87.007812 69.398438 L 87.140625 68.878906 L 87.332031 68.296875 L 87.554688 67.703125 L 87.96875 66.683594 L 88.160156 66.253906 L 75.199219 69.800781 Z M 88.160156 73.210938 " transform="matrix(1,0,0,1,-59,-5)"/>
<path style="fill-rule:nonzero;fill:rgb(36.84082%,50.67749%,70.979309%);fill-opacity:1;stroke-width:0.03;stroke-linecap:square;stroke-linejoin:miter;stroke:rgb(36.84082%,50.67749%,70.979309%);stroke-opacity:1;stroke-miterlimit:3.25;" d="M 353.839844 66.390625 L 354.03125 66.777344 L 354.445312 67.707031 L 354.667969 68.265625 L 354.859375 68.832031 L 354.992188 69.355469 L 355.035156 69.800781 L 354.992188 70.199219 L 354.859375 70.71875 L 354.667969 71.300781 L 354.445312 71.898438 L 354.03125 72.914062 L 353.839844 73.347656 L 366.800781 69.800781 Z M 353.839844 66.390625 " transform="matrix(1,0,0,1,-59,-5)"/>
<path style="fill:none;stroke-width:1.44;stroke-linecap:square;stroke-linejoin:miter;stroke:rgb(36.84082%,50.67749%,70.979309%);stroke-opacity:1;stroke-miterlimit:3.25;" d="M 221 108.394531 L 221.222656 108.394531 L 221.296875 108.390625 L 221.519531 108.390625 L 221.59375 108.386719 L 221.742188 108.386719 L 221.816406 108.382812 L 221.964844 108.382812 L 222.042969 108.378906 L 222.191406 108.375 L 222.265625 108.371094 L 222.339844 108.371094 L 222.488281 108.363281 L 222.5625 108.363281 L 223.453125 108.316406 L 223.527344 108.308594 L 223.675781 108.300781 L 223.972656 108.277344 L 224.046875 108.273438 L 224.121094 108.265625 L 224.269531 108.253906 L 224.566406 108.226562 L 224.640625 108.222656 L 224.710938 108.214844 L 225.15625 108.167969 L 225.746094 108.101562 L 225.828125 108.089844 L 225.90625 108.078125 L 226.066406 108.058594 L 226.386719 108.015625 L 227.023438 107.921875 L 227.105469 107.90625 L 227.183594 107.894531 L 227.34375 107.867188 L 227.660156 107.8125 L 228.296875 107.699219 L 228.453125 107.667969 L 228.613281 107.636719 L 228.929688 107.570312 L 229.558594 107.433594 L 230.8125 107.125 L 230.882812 107.105469 L 230.957031 107.085938 L 231.390625 106.96875 L 231.972656 106.800781 L 233.121094 106.441406 L 233.261719 106.394531 L 233.40625 106.34375 L 233.691406 106.246094 L 234.257812 106.042969 L 235.382812 105.613281 L 235.449219 105.585938 L 235.519531 105.558594 L 235.65625 105.503906 L 235.929688 105.390625 L 236.472656 105.15625 L 237.546875 104.667969 L 237.613281 104.636719 L 237.679688 104.601562 L 237.8125 104.539062 L 238.078125 104.410156 L 238.605469 104.144531 L 239.648438 103.589844 L 239.789062 103.511719 L 239.925781 103.433594 L 240.207031 103.273438 L 240.757812 102.953125 L 241.847656 102.277344 L 241.980469 102.191406 L 242.117188 102.105469 L 242.914062 101.566406 L 243.957031 100.824219 L 244.015625 100.777344 L 244.074219 100.734375 L 244.195312 100.644531 L 244.433594 100.464844 L 244.90625 100.097656 L 245.832031 99.34375 L 245.890625 99.292969 L 245.945312 99.246094 L 246.0625 99.148438 L 246.289062 98.953125 L 246.734375 98.558594 L 247.613281 97.75 L 247.671875 97.691406 L 247.730469 97.636719 L 247.847656 97.523438 L 248.078125 97.296875 L 248.539062 96.839844 L 249.429688 95.898438 L 249.539062 95.78125 L 249.648438 95.660156 L 249.863281 95.417969 L 250.289062 94.929688 L 251.117188 93.933594 L 251.167969 93.871094 L 251.214844 93.808594 L 251.3125 93.683594 L 251.511719 93.433594 L 251.894531 92.929688 L 252.640625 91.898438 L 252.6875 91.832031 L 252.730469 91.765625 L 252.820312 91.636719 L 253 91.375 L 253.351562 90.84375 L 254.027344 89.765625 L 254.066406 89.703125 L 254.105469 89.636719 L 254.179688 89.511719 L 254.332031 89.253906 L 254.625 88.742188 L 255.191406 87.699219 L 255.261719 87.566406 L 255.328125 87.433594 L 255.464844 87.171875 L 255.726562 86.640625 L 256.226562 85.5625 L 256.261719 85.488281 L 256.292969 85.417969 L 256.355469 85.269531 L 256.484375 84.972656 L 256.734375 84.378906 L 257.199219 83.179688 L 257.253906 83.03125 L 257.308594 82.878906 L 257.417969 82.578125 L 257.625 81.96875 L 258.011719 80.738281 L 258.050781 80.597656 L 258.09375 80.453125 L 258.175781 80.164062 L 258.332031 79.582031 L 258.351562 79.511719 L 258.371094 79.4375 L 258.40625 79.292969 L 258.480469 79 L 258.617188 78.417969 L 258.636719 78.34375 L 258.652344 78.269531 L 258.683594 78.125 L 258.75 77.832031 L 258.867188 77.242188 L 258.898438 77.09375 L 258.925781 76.945312 L 258.980469 76.652344 L 259.082031 76.058594 L 259.09375 75.988281 L 259.105469 75.914062 L 259.128906 75.769531 L 259.171875 75.476562 L 259.183594 75.40625 L 259.195312 75.332031 L 259.214844 75.1875 L 259.253906 74.894531 L 259.265625 74.824219 L 259.273438 74.75 L 259.292969 74.601562 L 259.328125 74.3125 L 259.394531 73.726562 L 259.402344 73.652344 L 259.40625 73.578125 L 259.421875 73.433594 L 259.449219 73.140625 L 259.453125 73.066406 L 259.460938 72.992188 L 259.472656 72.847656 L 259.496094 72.554688 L 259.503906 72.40625 L 259.515625 72.257812 L 259.519531 72.1875 L 259.535156 71.890625 L 259.539062 71.820312 L 259.554688 71.523438 L 259.5625 71.378906 L 259.5625 71.296875 L 259.566406 71.21875 L 259.570312 71.136719 L 259.574219 71.058594 L 259.574219 70.976562 L 259.578125 70.898438 L 259.582031 70.738281 L 259.582031 70.660156 L 259.585938 70.578125 L 259.585938 70.5 L 259.589844 70.417969 L 259.589844 70.179688 L 259.59375 70.101562 L 259.59375 69.542969 L 259.589844 69.460938 L 259.589844 69.222656 L 259.585938 69.140625 L 259.585938 68.984375 L 259.582031 68.902344 L 259.582031 68.824219 L 259.578125 68.742188 L 259.578125 68.664062 L 259.574219 68.582031 L 259.570312 68.503906 L 259.570312 68.425781 L 259.566406 68.34375 L 259.558594 68.183594 L 259.554688 68.105469 L 259.550781 68.023438 L 259.542969 67.867188 L 259.527344 67.546875 L 259.523438 67.46875 L 259.519531 67.386719 L 259.507812 67.226562 L 259.484375 66.910156 L 259.480469 66.828125 L 259.472656 66.75 L 259.460938 66.589844 L 259.433594 66.273438 L 259.339844 65.382812 L 259.304688 65.085938 L 259.296875 65.011719 L 259.285156 64.941406 L 259.226562 64.496094 L 259.140625 63.90625 L 259.117188 63.757812 L 259.09375 63.613281 L 259.046875 63.320312 L 258.941406 62.730469 L 258.703125 61.5625 L 258.6875 61.484375 L 258.667969 61.40625 L 258.632812 61.246094 L 258.5625 60.933594 L 258.40625 60.304688 L 258.328125 59.992188 L 258.242188 59.679688 L 258.070312 59.058594 L 258.023438 58.902344 L 257.976562 58.75 L 257.882812 58.441406 L 257.6875 57.824219 L 257.265625 56.601562 L 257.15625 56.304688 L 257.042969 56.007812 L 256.8125 55.417969 L 256.320312 54.25 L 256.289062 54.175781 L 256.257812 54.105469 L 256.191406 53.960938 L 256.0625 53.671875 L 255.792969 53.097656 L 255.222656 51.960938 L 255.1875 51.898438 L 255.15625 51.832031 L 255.085938 51.699219 L 254.945312 51.441406 L 254.660156 50.921875 L 254.066406 49.898438 L 253.988281 49.773438 L 253.914062 49.644531 L 253.757812 49.394531 L 253.441406 48.894531 L 252.785156 47.910156 L 252.738281 47.84375 L 252.695312 47.777344 L 252.601562 47.648438 L 252.417969 47.386719 L 252.039062 46.867188 L 251.261719 45.847656 L 251.058594 45.597656 L 250.859375 45.347656 L 250.445312 44.855469 L 249.601562 43.890625 L 249.550781 43.832031 L 249.195312 43.449219 L 248.785156 43.015625 L 247.9375 42.164062 L 247.832031 42.058594 L 247.722656 41.957031 L 247.507812 41.75 L 247.070312 41.34375 L 246.171875 40.546875 L 246.113281 40.496094 L 246.050781 40.441406 L 245.925781 40.335938 L 245.679688 40.128906 L 245.175781 39.71875 L 244.152344 38.921875 L 244.085938 38.871094 L 244.019531 38.824219 L 243.890625 38.726562 L 243.628906 38.535156 L 243.097656 38.160156 L 242.023438 37.433594 L 241.890625 37.347656 L 241.753906 37.261719 L 240.945312 36.757812 L 239.84375 36.117188 L 239.773438 36.082031 L 239.5625 35.964844 L 239.285156 35.8125 L 238.71875 35.515625 L 237.578125 34.949219 L 237.445312 34.886719 L 237.308594 34.824219 L 237.039062 34.699219 L 236.496094 34.457031 L 235.402344 33.996094 L 235.332031 33.96875 L 235.265625 33.941406 L 235.125 33.886719 L 234.847656 33.777344 L 234.292969 33.566406 L 233.171875 33.175781 L 233.09375 33.152344 L 233.019531 33.125 L 232.863281 33.074219 L 232.558594 32.976562 L 231.941406 32.789062 L 231.863281 32.765625 L 231.785156 32.746094 L 231.632812 32.699219 L 231.320312 32.613281 L 230.699219 32.445312 L 230.074219 32.289062 L 229.445312 32.140625 L 228.183594 31.882812 L 228.109375 31.867188 L 228.039062 31.855469 L 227.59375 31.773438 L 227 31.675781 L 226.703125 31.628906 L 226.40625 31.585938 L 225.808594 31.507812 L 225.734375 31.5 L 225.660156 31.488281 L 225.507812 31.472656 L 225.210938 31.4375 L 225.0625 31.421875 L 224.910156 31.40625 L 224.613281 31.375 L 224.539062 31.371094 L 224.460938 31.363281 L 224.3125 31.347656 L 224.011719 31.324219 L 223.9375 31.320312 L 223.863281 31.3125 L 223.710938 31.300781 L 223.414062 31.28125 L 223.042969 31.261719 L 222.972656 31.257812 L 222.675781 31.242188 L 222.527344 31.238281 L 222.457031 31.234375 L 222.382812 31.230469 L 222.234375 31.226562 L 222.160156 31.222656 L 222.085938 31.222656 L 222.011719 31.21875 L 221.941406 31.21875 L 221.867188 31.214844 L 221.71875 31.214844 L 221.644531 31.210938 L 221.421875 31.210938 L 221.351562 31.207031 L 220.613281 31.207031 L 220.539062 31.210938 L 220.316406 31.210938 L 220.246094 31.214844 L 220.171875 31.214844 L 220.097656 31.21875 L 220.023438 31.21875 L 219.875 31.222656 L 219.800781 31.226562 L 219.726562 31.226562 L 219.582031 31.234375 L 219.507812 31.234375 L 219.210938 31.25 L 219.140625 31.25 L 218.992188 31.257812 L 218.695312 31.277344 L 218.539062 31.285156 L 218.058594 31.320312 L 217.980469 31.324219 L 217.898438 31.332031 L 217.738281 31.34375 L 217.421875 31.371094 L 217.339844 31.378906 L 217.261719 31.386719 L 217.101562 31.402344 L 216.785156 31.4375 L 216.148438 31.511719 L 215.992188 31.535156 L 215.832031 31.554688 L 215.515625 31.597656 L 214.882812 31.695312 L 214.726562 31.71875 L 214.566406 31.746094 L 214.25 31.800781 L 213.621094 31.917969 L 213.550781 31.933594 L 213.476562 31.945312 L 213.328125 31.976562 L 213.039062 32.035156 L 212.453125 32.164062 L 212.382812 32.179688 L 212.308594 32.199219 L 212.164062 32.230469 L 211.875 32.300781 L 211.292969 32.445312 L 211.222656 32.464844 L 211.148438 32.484375 L 211.003906 32.523438 L 210.71875 32.601562 L 210.144531 32.765625 L 209.003906 33.117188 L 208.925781 33.144531 L 208.847656 33.167969 L 208.695312 33.222656 L 208.390625 33.324219 L 207.78125 33.542969 L 206.570312 34.003906 L 206.273438 34.128906 L 205.972656 34.253906 L 205.378906 34.507812 L 204.203125 35.054688 L 204.132812 35.085938 L 204.0625 35.121094 L 203.917969 35.191406 L 203.636719 35.335938 L 203.070312 35.625 L 201.953125 36.234375 L 201.886719 36.273438 L 201.816406 36.3125 L 201.679688 36.390625 L 201.40625 36.550781 L 200.859375 36.878906 L 199.785156 37.558594 L 199.726562 37.601562 L 199.664062 37.640625 L 199.539062 37.722656 L 199.292969 37.890625 L 198.808594 38.226562 L 197.847656 38.921875 L 197.789062 38.96875 L 197.730469 39.011719 L 197.613281 39.101562 L 197.375 39.28125 L 196.910156 39.648438 L 195.996094 40.402344 L 195.933594 40.453125 L 195.875 40.507812 L 195.753906 40.609375 L 195.511719 40.820312 L 195.03125 41.25 L 194.09375 42.132812 L 194.039062 42.1875 L 193.980469 42.242188 L 193.867188 42.355469 L 193.636719 42.582031 L 193.1875 43.042969 L 192.3125 43.984375 L 192.261719 44.039062 L 192.214844 44.09375 L 192.113281 44.207031 L 191.914062 44.433594 L 191.523438 44.886719 L 190.765625 45.816406 L 190.578125 46.050781 L 190.394531 46.289062 L 190.035156 46.765625 L 189.332031 47.742188 L 189.289062 47.800781 L 189.25 47.859375 L 189.164062 47.980469 L 189 48.226562 L 188.675781 48.714844 L 188.046875 49.710938 L 188.007812 49.773438 L 187.972656 49.835938 L 187.894531 49.960938 L 187.449219 50.722656 L 186.886719 51.753906 L 186.847656 51.824219 L 186.8125 51.894531 L 186.738281 52.039062 L 186.589844 52.320312 L 186.308594 52.890625 L 185.765625 54.046875 L 185.703125 54.195312 L 185.636719 54.339844 L 185.511719 54.632812 L 185.265625 55.222656 L 184.804688 56.410156 L 184.777344 56.480469 L 184.753906 56.550781 L 184.601562 56.972656 L 184.40625 57.535156 L 184.046875 58.667969 L 184.023438 58.742188 L 184.003906 58.8125 L 183.960938 58.953125 L 183.878906 59.242188 L 183.722656 59.816406 L 183.429688 60.96875 L 183.414062 61.046875 L 183.394531 61.125 L 183.359375 61.285156 L 183.289062 61.597656 L 183.15625 62.230469 L 183.140625 62.308594 L 183.125 62.390625 L 183.09375 62.546875 L 183.035156 62.863281 L 182.925781 63.5 L 182.910156 63.578125 L 182.898438 63.660156 L 182.871094 63.820312 L 182.824219 64.136719 L 182.8125 64.21875 L 182.800781 64.296875 L 182.777344 64.457031 L 182.734375 64.777344 L 182.722656 64.855469 L 182.714844 64.9375 L 182.65625 65.417969 L 182.589844 66.058594 L 182.582031 66.132812 L 182.574219 66.210938 L 182.558594 66.359375 L 182.535156 66.660156 L 182.527344 66.734375 L 182.523438 66.808594 L 182.511719 66.960938 L 182.492188 67.261719 L 182.484375 67.335938 L 182.480469 67.410156 L 182.472656 67.5625 L 182.464844 67.710938 L 182.457031 67.863281 L 182.449219 68.011719 L 182.441406 68.164062 L 182.433594 68.3125 L 182.429688 68.464844 L 182.425781 68.539062 L 182.425781 68.617188 L 182.421875 68.691406 L 182.421875 68.765625 L 182.417969 68.839844 L 182.417969 68.917969 L 182.414062 68.992188 L 182.414062 69.140625 L 182.410156 69.21875 L 182.410156 69.445312 L 182.40625 69.519531 L 182.40625 70.121094 L 182.410156 70.195312 L 182.410156 70.421875 L 182.414062 70.5 L 182.414062 70.574219 L 182.417969 70.648438 L 182.417969 70.722656 L 182.421875 70.875 L 182.425781 70.949219 L 182.425781 71.023438 L 182.429688 71.171875 L 182.433594 71.242188 L 182.4375 71.316406 L 182.441406 71.464844 L 182.457031 71.761719 L 182.472656 72.054688 L 182.480469 72.203125 L 182.492188 72.351562 L 182.511719 72.644531 L 182.515625 72.71875 L 182.523438 72.792969 L 182.535156 72.941406 L 182.558594 73.234375 L 182.574219 73.382812 L 182.585938 73.527344 L 182.617188 73.820312 L 182.648438 74.117188 L 182.683594 74.410156 L 182.691406 74.484375 L 182.699219 74.554688 L 182.71875 74.703125 L 182.757812 74.996094 L 182.84375 75.582031 L 182.867188 75.738281 L 182.890625 75.898438 L 182.941406 76.214844 L 183.054688 76.84375 L 183.085938 77 L 183.113281 77.160156 L 183.175781 77.472656 L 183.308594 78.101562 L 183.328125 78.179688 L 183.34375 78.257812 L 183.378906 78.414062 L 183.453125 78.726562 L 183.605469 79.347656 L 183.945312 80.582031 L 183.964844 80.65625 L 183.984375 80.726562 L 184.027344 80.871094 L 184.296875 81.726562 L 184.683594 82.859375 L 184.707031 82.929688 L 184.734375 83 L 184.785156 83.140625 L 184.890625 83.421875 L 185.105469 83.976562 L 185.5625 85.082031 L 185.59375 85.160156 L 185.625 85.234375 L 185.691406 85.382812 L 185.824219 85.675781 L 186.09375 86.265625 L 186.667969 87.429688 L 186.707031 87.5 L 186.742188 87.574219 L 186.816406 87.714844 L 186.96875 88.003906 L 187.28125 88.570312 L 187.929688 89.695312 L 187.96875 89.761719 L 188.011719 89.828125 L 188.09375 89.964844 L 188.261719 90.234375 L 188.601562 90.773438 L 189.3125 91.828125 L 189.359375 91.894531 L 189.402344 91.960938 L 189.496094 92.089844 L 189.679688 92.347656 L 190.054688 92.863281 L 190.832031 93.871094 L 190.925781 93.988281 L 191.019531 94.101562 L 191.207031 94.332031 L 191.585938 94.789062 L 192.371094 95.679688 L 192.421875 95.734375 L 192.46875 95.789062 L 192.773438 96.117188 L 193.179688 96.546875 L 194.015625 97.390625 L 194.074219 97.449219 L 194.132812 97.503906 L 194.246094 97.617188 L 194.480469 97.835938 L 194.949219 98.277344 L 195.914062 99.128906 L 195.976562 99.179688 L 196.039062 99.234375 L 196.160156 99.335938 L 196.40625 99.542969 L 196.90625 99.949219 L 197.925781 100.734375 L 197.988281 100.78125 L 198.046875 100.824219 L 198.167969 100.914062 L 198.410156 101.089844 L 198.902344 101.441406 L 199.898438 102.113281 L 199.960938 102.152344 L 200.023438 102.195312 L 200.148438 102.277344 L 200.402344 102.4375 L 200.914062 102.753906 L 201.949219 103.363281 L 202.011719 103.398438 L 202.078125 103.4375 L 202.980469 103.929688 L 204.03125 104.464844 L 204.296875 104.589844 L 204.5625 104.71875 L 205.097656 104.964844 L 206.179688 105.433594 L 206.328125 105.496094 L 206.476562 105.554688 L 206.773438 105.675781 L 207.367188 105.90625 L 208.570312 106.335938 L 208.648438 106.363281 L 208.722656 106.386719 L 208.875 106.4375 L 209.175781 106.539062 L 209.789062 106.730469 L 211.015625 107.078125 L 211.089844 107.097656 L 211.160156 107.117188 L 211.304688 107.15625 L 211.59375 107.230469 L 212.171875 107.371094 L 212.320312 107.402344 L 212.464844 107.4375 L 212.753906 107.503906 L 213.339844 107.625 L 213.414062 107.640625 L 213.484375 107.65625 L 213.632812 107.683594 L 213.925781 107.738281 L 214.511719 107.84375 L 214.660156 107.867188 L 214.804688 107.894531 L 215.101562 107.941406 L 215.691406 108.027344 L 215.773438 108.039062 L 215.855469 108.046875 L 216.019531 108.070312 L 216.351562 108.113281 L 216.433594 108.121094 L 216.515625 108.132812 L 216.679688 108.152344 L 217.011719 108.1875 L 217.09375 108.195312 L 217.179688 108.203125 L 217.34375 108.21875 L 217.675781 108.25 L 217.839844 108.265625 L 218.007812 108.277344 L 218.339844 108.300781 L 218.421875 108.308594 L 218.503906 108.3125 L 218.671875 108.324219 L 218.835938 108.332031 L 219.003906 108.339844 L 219.085938 108.347656 L 219.167969 108.351562 L 219.335938 108.355469 L 219.417969 108.359375 L 219.503906 108.363281 L 219.75 108.375 L 219.835938 108.375 L 219.917969 108.378906 L 220 108.378906 L 220.085938 108.382812 L 220.167969 108.382812 L 220.25 108.386719 L 220.335938 108.386719 L 220.417969 108.390625 L 220.75 108.390625 L 220.832031 108.394531 L 221 108.394531 " transform="matrix(1,0,0,1,-59,-5)"/>
<path style=" stroke:none;fill-rule:evenodd;fill:rgb(36.84082%,50.67749%,70.979309%);fill-opacity:1;" d="M 49.859375 65 C 49.859375 63.710938 49.347656 62.476562 48.4375 61.5625 C 47.523438 60.652344 46.289062 60.140625 45 60.140625 C 43.710938 60.140625 42.476562 60.652344 41.5625 61.5625 C 40.652344 62.476562 40.140625 63.710938 40.140625 65 C 40.140625 66.289062 40.652344 67.523438 41.5625 68.4375 C 42.476562 69.347656 43.710938 69.859375 45 69.859375 C 46.289062 69.859375 47.523438 69.347656 48.4375 68.4375 C 49.347656 67.523438 49.859375 66.289062 49.859375 65 Z M 49.859375 65 "/>
<path style=" stroke:none;fill-rule:evenodd;fill:rgb(36.84082%,50.67749%,70.979309%);fill-opacity:1;" d="M 108.859375 55 C 108.859375 53.710938 108.347656 52.476562 107.4375 51.5625 C 106.523438 50.652344 105.289062 50.140625 104 50.140625 C 102.710938 50.140625 101.476562 50.652344 100.5625 51.5625 C 99.652344 52.476562 99.140625 53.710938 99.140625 55 C 99.140625 56.289062 99.652344 57.523438 100.5625 58.4375 C 101.476562 59.347656 102.710938 59.859375 104 59.859375 C 105.289062 59.859375 106.523438 59.347656 107.4375 58.4375 C 108.347656 57.523438 108.859375 56.289062 108.859375 55 Z M 108.859375 55 "/>
<path style=" stroke:none;fill-rule:evenodd;fill:rgb(36.84082%,50.67749%,70.979309%);fill-opacity:1;" d="M 166.859375 26 C 166.859375 24.710938 166.347656 23.476562 165.4375 22.5625 C 164.523438 21.652344 163.289062 21.140625 162 21.140625 C 160.710938 21.140625 159.476562 21.652344 158.5625 22.5625 C 157.652344 23.476562 157.140625 24.710938 157.140625 26 C 157.140625 27.289062 157.652344 28.523438 158.5625 29.4375 C 159.476562 30.347656 160.710938 30.859375 162 30.859375 C 163.289062 30.859375 164.523438 30.347656 165.4375 29.4375 C 166.347656 28.523438 166.859375 27.289062 166.859375 26 Z M 166.859375 26 "/>
<path style=" stroke:none;fill-rule:evenodd;fill:rgb(36.84082%,50.67749%,70.979309%);fill-opacity:1;" d="M 224.859375 55 C 224.859375 53.710938 224.347656 52.476562 223.4375 51.5625 C 222.523438 50.652344 221.289062 50.140625 220 50.140625 C 218.710938 50.140625 217.476562 50.652344 216.5625 51.5625 C 215.652344 52.476562 215.140625 53.710938 215.140625 55 C 215.140625 56.289062 215.652344 57.523438 216.5625 58.4375 C 217.476562 59.347656 218.710938 59.859375 220 59.859375 C 221.289062 59.859375 222.523438 59.347656 223.4375 58.4375 C 224.347656 57.523438 224.859375 56.289062 224.859375 55 Z M 224.859375 55 "/>
<path style=" stroke:none;fill-rule:evenodd;fill:rgb(36.84082%,50.67749%,70.979309%);fill-opacity:1;" d="M 283.859375 65 C 283.859375 63.710938 283.347656 62.476562 282.4375 61.5625 C 281.523438 60.652344 280.289062 60.140625 279 60.140625 C 277.710938 60.140625 276.476562 60.652344 275.5625 61.5625 C 274.652344 62.476562 274.140625 63.710938 274.140625 65 C 274.140625 66.289062 274.652344 67.523438 275.5625 68.4375 C 276.476562 69.347656 277.710938 69.859375 279 69.859375 C 280.289062 69.859375 281.523438 69.347656 282.4375 68.4375 C 283.347656 67.523438 283.859375 66.289062 283.859375 65 Z M 283.859375 65 "/>
</g>
</svg>
