<?xml version="1.0" encoding="UTF-8"?>
<svg xmlns="http://www.w3.org/2000/svg" xmlns:xlink="http://www.w3.org/1999/xlink" width="324pt" height="130pt" viewBox="0 0 324 130" version="1.1">
<g id="surface24">
<path style="fill:none;stroke-width:1.44;stroke-linecap:butt;stroke-linejoin:miter;stroke:rgb(36.84082%,50.67749%,70.979309%);stroke-opacity:1;stroke-miterlimit:3.25;" d="M 86.964844 69.800781 L 355.035156 69.800781 " transform="matrix(1,0,0,1,-59,-5)"/>
<path style="fill-rule:nonzero;fill:rgb(36.84082%,50.67749%,70.979309%);fill-opacity:1;stroke-width:0.03;stroke-linecap:square;stroke-linejoin:miter;stroke:rgb(36.84082%,50.67749%,70.979309%);stroke-opacity:1;stroke-miterlimit:3.25;" d="M 88.160156 73.210938 L 87.96875 72.824219 L 87.554688 71.890625 L 87.332031 71.332031 L 87.140625 70.769531 L 87.007812 70.242188 L 86.964844 69.800781 L 87.007812 69.398438 L 87.140625 68.882812 L 87.332031 68.296875 L 87.554688 67.703125 L 87.96875 66.6875 L 88.160156 66.253906 L 75.199219 69.800781 Z M 88.160156 73.210938 " transform="matrix(1,0,0,1,-59,-5)"/>
<path style="fill-rule:nonzero;fill:rgb(36.84082%,50.67749%,70.979309%);fill-opacity:1;stroke-width:0.03;stroke-linecap:square;stroke-linejoin:miter;stroke:rgb(36.84082%,50.67749%,70.979309%);stroke-opacity:1;stroke-miterlimit:3.25;" d="M 353.839844 66.390625 L 354.03125 66.777344 L 354.445312 67.707031 L 354.667969 68.269531 L 354.859375 68.832031 L 354.992188 69.355469 L 355.035156 69.800781 L 354.992188 70.199219 L 354.859375 70.71875 L 354.667969 71.300781 L 354.445312 71.898438 L 354.03125 72.914062 L 353.839844 73.347656 L 366.800781 69.800781 Z M 353.839844 66.390625 " transform="matrix(1,0,0,1,-59,-5)"/>
<path style=" stroke:none;fill-rule:evenodd;fill:rgb(36.84082%,50.67749%,70.979309%);fill-opacity:1;" d="M 49.859375 65 C 49.859375 63.710938 49.347656 62.476562 48.4375 61.5625 C 47.523438 60.652344 46.289062 60.140625 45 60.140625 C 43.710938 60.140625 42.476562 60.652344 41.5625 61.5625 C 40.652344 62.476562 40.140625 63.710938 40.140625 65 C 40.140625 66.289062 40.652344 67.523438 41.5625 68.4375 C 42.476562 69.347656 43.710938 69.859375 45 69.859375 C 46.289062 69.859375 47.523438 69.347656 48.4375 68.4375 C 49.347656 67.523438 49.859375 66.289062 49.859375 65 Z M 49.859375 65 "/>
<path style=" stroke:none;fill-rule:evenodd;fill:rgb(36.84082%,50.67749%,70.979309%);fill-opacity:1;" d="M 108.859375 65 C 108.859375 63.710938 108.347656 62.476562 107.4375 61.5625 C 106.523438 60.652344 105.289062 60.140625 104 60.140625 C 102.710938 60.140625 101.476562 60.652344 100.5625 61.5625 C 99.652344 62.476562 99.140625 63.710938 99.140625 65 C 99.140625 66.289062 99.652344 67.523438 100.5625 68.4375 C 101.476562 69.347656 102.710938 69.859375 104 69.859375 C 105.289062 69.859375 106.523438 69.347656 107.4375 68.4375 C 108.347656 67.523438 108.859375 66.289062 108.859375 65 Z M 108.859375 65 "/>
<path style=" stroke:none;fill-rule:evenodd;fill:rgb(36.84082%,50.67749%,70.979309%);fill-opacity:1;" d="M 166.859375 65 C 166.859375 63.710938 166.347656 62.476562 165.4375 61.5625 C 164.523438 60.652344 163.289062 60.140625 162 60.140625 C 160.710938 60.140625 159.476562 60.652344 158.5625 61.5625 C 157.652344 62.476562 157.140625 63.710938 157.140625 65 C 157.140625 66.289062 157.652344 67.523438 158.5625 68.4375 C 159.476562 69.347656 160.710938 69.859375 162 69.859375 C 163.289062 69.859375 164.523438 69.347656 165.4375 68.4375 C 166.347656 67.523438 166.859375 66.289062 166.859375 65 Z M 166.859375 65 "/>
<path style=" stroke:none;fill-rule:evenodd;fill:rgb(36.84082%,50.67749%,70.979309%);fill-opacity:1;" d="M 224.859375 65 C 224.859375 63.710938 224.347656 62.476562 223.4375 61.5625 C 222.523438 60.652344 221.289062 60.140625 220 60.140625 C 218.710938 60.140625 217.476562 60.652344 216.5625 61.5625 C 215.652344 62.476562 215.140625 63.710938 215.140625 65 C 215.140625 66.289062 215.652344 67.523438 216.5625 68.4375 C 217.476562 69.347656 218.710938 69.859375 220 69.859375 C 221.289062 69.859375 222.523438 69.347656 223.4375 68.4375 C 224.347656 67.523438 224.859375 66.289062 224.859375 65 Z M 224.859375 65 "/>
<path style=" stroke:none;fill-rule:evenodd;fill:rgb(36.84082%,50.67749%,70.979309%);fill-opacity:1;" d="M 283.859375 65 C 283.859375 63.710938 283.347656 62.476562 282.4375 61.5625 C 281.523438 60.652344 280.289062 60.140625 279 60.140625 C 277.710938 60.140625 276.476562 60.652344 275.5625 61.5625 C 274.652344 62.476562 274.140625 63.710938 274.140625 65 C 274.140625 66.289062 274.652344 67.523438 275.5625 68.4375 C 276.476562 69.347656 277.710938 69.859375 279 69.859375 C 280.289062 69.859375 281.523438 69.347656 282.4375 68.4375 C 283.347656 67.523438 283.859375 66.289062 283.859375 65 Z M 283.859375 65 "/>
</g>
</svg>
