<?xml version="1.0" encoding="UTF-8"?>
<svg xmlns="http://www.w3.org/2000/svg" xmlns:xlink="http://www.w3.org/1999/xlink" width="324pt" height="324pt" viewBox="0 0 324 324" version="1.1">
<g id="surface39">
<path style="fill:none;stroke-width:1.44;stroke-linecap:butt;stroke-linejoin:miter;stroke:rgb(36.84082%,50.67749%,70.979309%);stroke-opacity:1;stroke-miterlimit:3.25;" d="M 221 312.800781 L 221.546875 312.800781 L 221.824219 312.796875 L 222.097656 312.796875 L 222.644531 312.789062 L 222.917969 312.789062 L 223.195312 312.785156 L 223.46875 312.777344 L 224.015625 312.769531 L 224.289062 312.761719 L 224.566406 312.757812 L 225.660156 312.726562 L 225.9375 312.714844 L 226.484375 312.695312 L 226.757812 312.6875 L 227.578125 312.652344 L 227.855469 312.640625 L 228.128906 312.625 L 228.675781 312.597656 L 230.316406 312.503906 L 230.867188 312.464844 L 232.234375 312.367188 L 232.507812 312.34375 L 233.054688 312.300781 L 234.144531 312.207031 L 234.417969 312.179688 L 234.691406 312.15625 L 235.238281 312.101562 L 236.328125 311.992188 L 238.511719 311.746094 L 238.804688 311.707031 L 239.101562 311.671875 L 239.691406 311.597656 L 240.867188 311.441406 L 243.222656 311.097656 L 243.808594 311.003906 L 244.398438 310.910156 L 245.570312 310.714844 L 247.910156 310.292969 L 248.496094 310.183594 L 249.078125 310.070312 L 250.246094 309.835938 L 252.570312 309.339844 L 257.199219 308.234375 L 257.46875 308.164062 L 257.734375 308.097656 L 258.273438 307.957031 L 259.34375 307.667969 L 261.484375 307.066406 L 265.730469 305.769531 L 265.996094 305.683594 L 266.257812 305.597656 L 266.789062 305.425781 L 267.839844 305.070312 L 269.9375 304.339844 L 274.097656 302.789062 L 274.351562 302.6875 L 274.605469 302.589844 L 275.109375 302.386719 L 276.121094 301.980469 L 278.128906 301.140625 L 282.109375 299.375 L 282.359375 299.261719 L 282.605469 299.144531 L 283.097656 298.914062 L 284.082031 298.449219 L 286.035156 297.492188 L 289.90625 295.492188 L 290.164062 295.351562 L 290.425781 295.210938 L 290.941406 294.929688 L 291.976562 294.359375 L 294.03125 293.191406 L 298.082031 290.757812 L 298.582031 290.445312 L 299.082031 290.128906 L 300.074219 289.492188 L 302.050781 288.195312 L 305.933594 285.507812 L 306.378906 285.1875 L 306.824219 284.863281 L 307.714844 284.210938 L 309.476562 282.886719 L 312.941406 280.15625 L 313.152344 279.984375 L 313.367188 279.808594 L 313.792969 279.460938 L 314.640625 278.753906 L 316.320312 277.328125 L 319.609375 274.394531 L 319.832031 274.191406 L 320.488281 273.582031 L 321.355469 272.765625 L 323.078125 271.105469 L 326.433594 267.707031 L 326.636719 267.488281 L 326.84375 267.273438 L 327.253906 266.839844 L 328.066406 265.964844 L 329.675781 264.199219 L 332.800781 260.585938 L 333.175781 260.132812 L 333.550781 259.683594 L 334.292969 258.773438 L 335.753906 256.941406 L 338.585938 253.203125 L 338.761719 252.964844 L 338.933594 252.730469 L 339.277344 252.253906 L 339.957031 251.300781 L 341.300781 249.375 L 343.886719 245.464844 L 344.035156 245.234375 L 344.179688 245 L 344.472656 244.539062 L 345.050781 243.609375 L 346.1875 241.742188 L 348.371094 237.949219 L 348.636719 237.472656 L 348.902344 236.992188 L 349.421875 236.03125 L 350.445312 234.097656 L 352.398438 230.183594 L 352.527344 229.914062 L 352.65625 229.648438 L 352.90625 229.113281 L 353.410156 228.035156 L 354.382812 225.875 L 356.230469 221.503906 L 356.339844 221.230469 L 356.449219 220.953125 L 356.667969 220.402344 L 357.097656 219.296875 L 357.929688 217.074219 L 359.488281 212.59375 L 359.574219 212.332031 L 359.660156 212.066406 L 359.832031 211.539062 L 360.164062 210.484375 L 360.808594 208.367188 L 360.964844 207.835938 L 361.117188 207.304688 L 361.421875 206.238281 L 362 204.101562 L 362.070312 203.832031 L 362.140625 203.566406 L 362.277344 203.027344 L 362.546875 201.953125 L 363.0625 199.800781 L 363.992188 195.46875 L 364.046875 195.203125 L 364.097656 194.9375 L 364.203125 194.40625 L 364.402344 193.339844 L 364.777344 191.199219 L 364.824219 190.933594 L 364.867188 190.664062 L 364.953125 190.128906 L 365.121094 189.054688 L 365.433594 186.90625 L 365.472656 186.640625 L 365.578125 185.832031 L 365.714844 184.753906 L 365.746094 184.484375 L 365.78125 184.214844 L 365.84375 183.675781 L 365.964844 182.597656 L 366.074219 181.519531 L 366.179688 180.4375 L 366.226562 179.898438 L 366.277344 179.355469 L 366.363281 178.273438 L 366.386719 177.980469 L 366.40625 177.6875 L 366.449219 177.101562 L 366.46875 176.804688 L 366.527344 175.925781 L 366.542969 175.632812 L 366.5625 175.335938 L 366.609375 174.457031 L 366.625 174.160156 L 366.652344 173.574219 L 366.664062 173.277344 L 366.675781 172.984375 L 366.699219 172.394531 L 366.722656 171.808594 L 366.738281 171.21875 L 366.746094 170.925781 L 366.753906 170.628906 L 366.769531 170.042969 L 366.773438 169.746094 L 366.78125 169.453125 L 366.785156 169.160156 L 366.789062 168.863281 L 366.792969 168.570312 L 366.792969 168.273438 L 366.796875 167.980469 L 366.796875 167.6875 L 366.800781 167.390625 L 366.800781 166.507812 L 366.796875 166.214844 L 366.796875 165.917969 L 366.789062 165.332031 L 366.785156 165.035156 L 366.777344 164.449219 L 366.773438 164.152344 L 366.765625 163.859375 L 366.757812 163.5625 L 366.753906 163.269531 L 366.746094 162.976562 L 366.734375 162.679688 L 366.726562 162.386719 L 366.707031 161.796875 L 366.683594 161.210938 L 366.660156 160.621094 L 366.648438 160.328125 L 366.632812 160.03125 L 366.605469 159.445312 L 366.589844 159.171875 L 366.574219 158.894531 L 366.542969 158.347656 L 366.472656 157.25 L 366.457031 156.976562 L 366.4375 156.703125 L 366.394531 156.15625 L 366.308594 155.058594 L 366.289062 154.785156 L 366.265625 154.511719 L 366.113281 152.871094 L 365.882812 150.683594 L 365.820312 150.136719 L 365.757812 149.59375 L 365.621094 148.5 L 365.328125 146.324219 L 365.289062 146.050781 L 365.246094 145.78125 L 365.167969 145.238281 L 365 144.148438 L 364.636719 141.980469 L 364.535156 141.394531 L 364.429688 140.808594 L 364.210938 139.636719 L 363.742188 137.300781 L 363.683594 137.011719 L 363.621094 136.71875 L 363.496094 136.136719 L 363.238281 134.972656 L 362.695312 132.652344 L 362.554688 132.074219 L 362.410156 131.496094 L 362.117188 130.34375 L 361.5 128.042969 L 360.152344 123.472656 L 360.0625 123.191406 L 359.976562 122.914062 L 359.796875 122.355469 L 359.433594 121.246094 L 358.683594 119.03125 L 357.074219 114.636719 L 356.96875 114.367188 L 356.863281 114.09375 L 356.648438 113.546875 L 356.214844 112.460938 L 355.324219 110.300781 L 353.433594 106.019531 L 353.207031 105.527344 L 352.976562 105.03125 L 352.507812 104.046875 L 351.550781 102.085938 L 349.550781 98.207031 L 349.421875 97.96875 L 349.292969 97.726562 L 349.03125 97.25 L 348.507812 96.292969 L 347.4375 94.394531 L 345.207031 90.644531 L 345.050781 90.390625 L 344.894531 90.140625 L 344.582031 89.636719 L 343.953125 88.636719 L 342.664062 86.652344 L 339.992188 82.746094 L 339.820312 82.507812 L 339.648438 82.265625 L 339.304688 81.785156 L 338.609375 80.828125 L 337.195312 78.929688 L 334.277344 75.207031 L 334.101562 74.992188 L 333.929688 74.777344 L 333.578125 74.351562 L 332.875 73.503906 L 331.445312 71.820312 L 328.511719 68.515625 L 328.136719 68.109375 L 327.761719 67.707031 L 327.007812 66.898438 L 325.480469 65.304688 L 322.351562 62.1875 L 321.921875 61.773438 L 321.488281 61.359375 L 320.617188 60.539062 L 318.859375 58.917969 L 315.257812 55.765625 L 315.03125 55.574219 L 314.800781 55.378906 L 314.34375 54.996094 L 313.417969 54.234375 L 311.558594 52.730469 L 307.757812 49.820312 L 307.523438 49.648438 L 307.285156 49.472656 L 306.8125 49.125 L 305.859375 48.4375 L 303.9375 47.085938 L 300.03125 44.476562 L 299.785156 44.320312 L 299.535156 44.160156 L 299.042969 43.84375 L 298.046875 43.21875 L 296.042969 41.996094 L 291.976562 39.640625 L 291.734375 39.507812 L 291.496094 39.375 L 290.054688 38.589844 L 288.117188 37.566406 L 284.195312 35.605469 L 283.949219 35.488281 L 283.699219 35.371094 L 283.207031 35.136719 L 282.210938 34.671875 L 280.214844 33.765625 L 276.183594 32.046875 L 275.910156 31.933594 L 275.632812 31.824219 L 275.082031 31.601562 L 273.976562 31.164062 L 271.757812 30.320312 L 267.277344 28.738281 L 266.996094 28.644531 L 266.710938 28.550781 L 266.148438 28.367188 L 265.015625 28.003906 L 262.746094 27.304688 L 258.171875 26.019531 L 257.632812 25.878906 L 257.097656 25.738281 L 256.023438 25.46875 L 253.863281 24.953125 L 253.324219 24.828125 L 252.78125 24.707031 L 251.699219 24.46875 L 249.527344 24.019531 L 249.253906 23.964844 L 248.984375 23.910156 L 248.4375 23.804688 L 247.347656 23.601562 L 245.164062 23.214844 L 244.890625 23.171875 L 244.617188 23.125 L 244.070312 23.035156 L 242.972656 22.863281 L 240.777344 22.546875 L 240.238281 22.476562 L 239.699219 22.402344 L 238.621094 22.269531 L 238.351562 22.234375 L 238.078125 22.203125 L 237.539062 22.140625 L 236.457031 22.023438 L 236.1875 21.992188 L 235.378906 21.910156 L 234.292969 21.808594 L 234.023438 21.78125 L 233.753906 21.757812 L 233.210938 21.710938 L 232.128906 21.625 L 231.855469 21.605469 L 231.585938 21.585938 L 231.042969 21.546875 L 230.769531 21.527344 L 230.5 21.511719 L 229.957031 21.476562 L 229.6875 21.457031 L 229.414062 21.441406 L 227.785156 21.359375 L 227.515625 21.34375 L 227.242188 21.332031 L 226.699219 21.3125 L 226.425781 21.300781 L 226.15625 21.292969 L 225.613281 21.273438 L 225.339844 21.265625 L 225.070312 21.257812 L 224.523438 21.242188 L 224.253906 21.234375 L 223.980469 21.230469 L 223.710938 21.226562 L 223.4375 21.21875 L 223.144531 21.214844 L 222.847656 21.210938 L 222.554688 21.207031 L 222.257812 21.207031 L 221.964844 21.203125 L 221.667969 21.203125 L 221.375 21.199219 L 220.488281 21.199219 L 220.195312 21.203125 L 219.898438 21.203125 L 219.605469 21.207031 L 219.308594 21.210938 L 219.015625 21.214844 L 218.71875 21.21875 L 218.425781 21.222656 L 218.128906 21.226562 L 217.835938 21.234375 L 217.539062 21.242188 L 217.246094 21.25 L 216.949219 21.257812 L 216.359375 21.273438 L 216.066406 21.285156 L 215.769531 21.292969 L 215.179688 21.316406 L 214.59375 21.339844 L 214.003906 21.367188 L 213.707031 21.382812 L 213.414062 21.398438 L 212.824219 21.429688 L 212.53125 21.445312 L 212.234375 21.464844 L 211.648438 21.5 L 211.351562 21.519531 L 211.058594 21.539062 L 210.46875 21.582031 L 209.292969 21.671875 L 208.707031 21.71875 L 208.117188 21.769531 L 206.945312 21.878906 L 204.597656 22.125 L 204.050781 22.1875 L 203.503906 22.253906 L 202.410156 22.390625 L 200.230469 22.6875 L 199.683594 22.765625 L 199.140625 22.847656 L 198.050781 23.015625 L 195.878906 23.378906 L 195.609375 23.429688 L 195.339844 23.476562 L 194.796875 23.574219 L 193.714844 23.777344 L 191.554688 24.203125 L 187.253906 25.160156 L 186.964844 25.226562 L 186.675781 25.296875 L 186.097656 25.441406 L 184.9375 25.730469 L 182.632812 26.339844 L 178.046875 27.671875 L 177.761719 27.757812 L 177.476562 27.847656 L 176.910156 28.027344 L 175.773438 28.390625 L 173.511719 29.152344 L 169.023438 30.777344 L 167.929688 31.199219 L 166.84375 31.632812 L 164.675781 32.519531 L 160.382812 34.398438 L 160.117188 34.519531 L 159.851562 34.644531 L 159.320312 34.890625 L 158.257812 35.390625 L 156.152344 36.414062 L 151.988281 38.566406 L 151.75 38.695312 L 151.507812 38.824219 L 151.027344 39.085938 L 150.074219 39.613281 L 148.171875 40.691406 L 144.417969 42.933594 L 144.1875 43.074219 L 143.953125 43.21875 L 143.492188 43.507812 L 142.566406 44.09375 L 140.734375 45.28125 L 137.121094 47.742188 L 136.636719 48.085938 L 136.15625 48.429688 L 135.195312 49.121094 L 133.289062 50.53125 L 129.550781 53.445312 L 129.320312 53.628906 L 129.089844 53.816406 L 128.632812 54.191406 L 127.71875 54.945312 L 125.910156 56.476562 L 122.367188 59.625 L 121.960938 60 L 121.554688 60.378906 L 120.75 61.132812 L 119.15625 62.667969 L 116.035156 65.804688 L 115.652344 66.203125 L 115.273438 66.605469 L 114.511719 67.410156 L 113.015625 69.039062 L 110.089844 72.359375 L 109.914062 72.566406 L 109.742188 72.773438 L 109.390625 73.1875 L 108.695312 74.019531 L 107.324219 75.699219 L 104.660156 79.121094 L 104.496094 79.335938 L 104.335938 79.554688 L 104.011719 79.988281 L 103.367188 80.859375 L 102.097656 82.621094 L 99.640625 86.195312 L 99.476562 86.4375 L 99.316406 86.683594 L 98.992188 87.175781 L 98.351562 88.164062 L 97.097656 90.152344 L 94.679688 94.191406 L 94.535156 94.445312 L 94.386719 94.703125 L 94.097656 95.214844 L 93.523438 96.238281 L 92.398438 98.304688 L 90.246094 102.492188 L 90.003906 102.984375 L 89.765625 103.480469 L 89.289062 104.46875 L 88.363281 106.460938 L 86.601562 110.480469 L 86.390625 110.988281 L 86.179688 111.492188 L 85.765625 112.511719 L 84.960938 114.554688 L 83.441406 118.671875 L 83.050781 119.796875 L 82.671875 120.925781 L 81.9375 123.191406 L 81.847656 123.472656 L 81.761719 123.757812 L 81.585938 124.328125 L 81.242188 125.464844 L 80.582031 127.753906 L 80.503906 128.039062 L 80.421875 128.324219 L 80.265625 128.898438 L 79.960938 130.050781 L 79.375 132.355469 L 78.320312 137 L 78.261719 137.269531 L 78.207031 137.542969 L 78.09375 138.085938 L 77.878906 139.175781 L 77.421875 141.636719 L 77.28125 142.457031 L 77.097656 143.550781 L 76.757812 145.75 L 76.71875 146.023438 L 76.675781 146.296875 L 76.597656 146.847656 L 76.449219 147.949219 L 76.414062 148.226562 L 76.378906 148.5 L 76.308594 149.050781 L 76.175781 150.15625 L 76.144531 150.429688 L 76.113281 150.707031 L 76.050781 151.257812 L 75.9375 152.363281 L 75.882812 152.917969 L 75.828125 153.46875 L 75.730469 154.578125 L 75.707031 154.847656 L 75.683594 155.121094 L 75.640625 155.664062 L 75.5625 156.75 L 75.542969 157.019531 L 75.523438 157.292969 L 75.488281 157.835938 L 75.421875 158.925781 L 75.410156 159.195312 L 75.394531 159.46875 L 75.367188 160.011719 L 75.355469 160.285156 L 75.34375 160.554688 L 75.320312 161.101562 L 75.308594 161.371094 L 75.296875 161.644531 L 75.28125 162.1875 L 75.269531 162.460938 L 75.261719 162.734375 L 75.246094 163.277344 L 75.242188 163.550781 L 75.234375 163.824219 L 75.230469 164.09375 L 75.222656 164.367188 L 75.214844 164.914062 L 75.210938 165.183594 L 75.207031 165.457031 L 75.207031 165.730469 L 75.203125 166 L 75.203125 166.273438 L 75.199219 166.546875 L 75.199219 167.363281 L 75.203125 167.636719 L 75.203125 168.179688 L 75.210938 168.726562 L 75.214844 168.996094 L 75.222656 169.542969 L 75.226562 169.8125 L 75.234375 170.085938 L 75.238281 170.359375 L 75.246094 170.632812 L 75.253906 170.902344 L 75.269531 171.449219 L 75.285156 171.992188 L 75.296875 172.289062 L 75.308594 172.582031 L 75.332031 173.171875 L 75.34375 173.46875 L 75.355469 173.761719 L 75.386719 174.355469 L 75.402344 174.648438 L 75.417969 174.945312 L 75.449219 175.535156 L 75.523438 176.714844 L 75.5625 177.300781 L 75.605469 177.890625 L 75.699219 179.070312 L 75.726562 179.363281 L 75.75 179.660156 L 75.804688 180.246094 L 75.914062 181.421875 L 75.945312 181.71875 L 75.976562 182.011719 L 76.035156 182.597656 L 76.167969 183.773438 L 76.308594 184.945312 L 76.457031 186.117188 L 76.496094 186.410156 L 76.539062 186.703125 L 76.617188 187.289062 L 76.789062 188.460938 L 77.15625 190.792969 L 77.199219 191.066406 L 77.246094 191.339844 L 77.339844 191.882812 L 77.53125 192.96875 L 77.941406 195.136719 L 77.992188 195.40625 L 78.15625 196.214844 L 78.382812 197.296875 L 78.855469 199.449219 L 78.980469 199.988281 L 79.105469 200.523438 L 79.363281 201.597656 L 79.902344 203.734375 L 81.078125 207.988281 L 81.164062 208.273438 L 81.25 208.5625 L 81.421875 209.132812 L 81.769531 210.277344 L 82.5 212.550781 L 84.066406 217.070312 L 84.167969 217.347656 L 84.273438 217.628906 L 84.480469 218.191406 L 84.90625 219.308594 L 85.78125 221.53125 L 87.640625 225.933594 L 87.761719 226.203125 L 87.878906 226.472656 L 88.121094 227.007812 L 88.609375 228.074219 L 89.609375 230.195312 L 91.710938 234.394531 L 91.847656 234.652344 L 91.984375 234.914062 L 92.257812 235.429688 L 92.8125 236.464844 L 93.945312 238.519531 L 96.3125 242.570312 L 96.457031 242.804688 L 96.597656 243.039062 L 96.886719 243.503906 L 97.460938 244.433594 L 98.640625 246.28125 L 101.074219 249.917969 L 101.386719 250.371094 L 101.699219 250.816406 L 102.332031 251.710938 L 103.617188 253.484375 L 106.269531 256.96875 L 106.453125 257.203125 L 106.636719 257.433594 L 107.003906 257.898438 L 107.75 258.824219 L 109.257812 260.65625 L 112.367188 264.242188 L 112.566406 264.464844 L 112.761719 264.683594 L 113.160156 265.125 L 113.964844 266 L 115.589844 267.730469 L 118.925781 271.109375 L 119.125 271.300781 L 119.320312 271.496094 L 119.71875 271.878906 L 120.519531 272.648438 L 122.136719 274.160156 L 125.4375 277.117188 L 125.648438 277.296875 L 125.859375 277.480469 L 126.277344 277.839844 L 127.125 278.558594 L 128.832031 279.972656 L 132.308594 282.71875 L 132.523438 282.886719 L 132.738281 283.050781 L 133.171875 283.378906 L 134.039062 284.027344 L 135.792969 285.3125 L 139.359375 287.796875 L 139.582031 287.949219 L 139.808594 288.101562 L 140.261719 288.402344 L 141.167969 289 L 142.992188 290.175781 L 146.699219 292.445312 L 146.953125 292.597656 L 147.714844 293.042969 L 148.734375 293.632812 L 150.792969 294.785156 L 154.960938 296.984375 L 155.222656 297.121094 L 155.484375 297.25 L 156.011719 297.515625 L 157.070312 298.035156 L 159.195312 299.054688 L 163.496094 300.980469 L 164.003906 301.199219 L 164.511719 301.410156 L 165.527344 301.835938 L 167.566406 302.65625 L 171.683594 304.207031 L 171.941406 304.296875 L 172.199219 304.390625 L 172.71875 304.574219 L 173.757812 304.933594 L 175.84375 305.632812 L 180.046875 306.929688 L 180.339844 307.015625 L 180.636719 307.101562 L 181.226562 307.269531 L 182.410156 307.601562 L 184.78125 308.230469 L 185.078125 308.304688 L 185.375 308.382812 L 185.972656 308.53125 L 187.164062 308.820312 L 189.558594 309.371094 L 189.859375 309.433594 L 190.15625 309.5 L 190.757812 309.628906 L 191.960938 309.878906 L 194.371094 310.347656 L 194.972656 310.457031 L 195.578125 310.566406 L 196.789062 310.777344 L 197.089844 310.828125 L 197.394531 310.875 L 198 310.972656 L 198.300781 311.023438 L 198.910156 311.117188 L 228.285156 315.589844 " transform="matrix(1,0,0,1,-59,-5)"/>
<path style="fill-rule:nonzero;fill:rgb(36.84082%,50.67749%,70.979309%);fill-opacity:1;stroke-width:0.03;stroke-linecap:square;stroke-linejoin:miter;stroke:rgb(36.84082%,50.67749%,70.979309%);stroke-opacity:1;stroke-miterlimit:3.25;" d="M 229.960938 324.46875 L 229.636719 323.4375 L 228.957031 320.980469 L 228.625 319.515625 L 228.363281 318.046875 L 228.234375 316.699219 L 228.285156 315.589844 L 228.550781 314.617188 L 229.074219 313.382812 L 229.765625 312.015625 L 230.535156 310.625 L 231.945312 308.269531 L 232.578125 307.273438 L 199.210938 311.164062 Z M 229.960938 324.46875 " transform="matrix(1,0,0,1,-59,-5)"/>
<path style=" stroke:none;fill-rule:evenodd;fill:rgb(36.84082%,50.67749%,70.979309%);fill-opacity:1;" d="M 178.199219 16 C 178.199219 11.703125 176.492188 7.582031 173.457031 4.542969 C 170.417969 1.507812 166.296875 -0.199219 162 -0.199219 C 157.703125 -0.199219 153.582031 1.507812 150.542969 4.542969 C 147.507812 7.582031 145.800781 11.703125 145.800781 16 C 145.800781 20.296875 147.507812 24.417969 150.542969 27.457031 C 153.582031 30.492188 157.703125 32.199219 162 32.199219 C 166.296875 32.199219 170.417969 30.492188 173.457031 27.457031 C 176.492188 24.417969 178.199219 20.296875 178.199219 16 Z M 178.199219 16 "/>
<path style=" stroke:none;fill-rule:evenodd;fill:rgb(36.84082%,50.67749%,70.979309%);fill-opacity:1;" d="M 178.199219 16 C 178.199219 11.703125 176.492188 7.582031 173.457031 4.542969 C 170.417969 1.507812 166.296875 -0.199219 162 -0.199219 C 157.703125 -0.199219 153.582031 1.507812 150.542969 4.542969 C 147.507812 7.582031 145.800781 11.703125 145.800781 16 C 145.800781 20.296875 147.507812 24.417969 150.542969 27.457031 C 153.582031 30.492188 157.703125 32.199219 162 32.199219 C 166.296875 32.199219 170.417969 30.492188 173.457031 27.457031 C 176.492188 24.417969 178.199219 20.296875 178.199219 16 Z M 178.199219 16 "/>
</g>
</svg>
