<?xml version="1.0" encoding="UTF-8"?>
<svg xmlns="http://www.w3.org/2000/svg" xmlns:xlink="http://www.w3.org/1999/xlink" width="209pt" height="209pt" viewBox="0 0 209 209" version="1.1">
<g id="surface1">
<path style="fill:none;stroke-width:1.44;stroke-linecap:butt;stroke-linejoin:miter;stroke:rgb(36.84082%,50.67749%,70.979309%);stroke-opacity:1;stroke-miterlimit:3.25;" d="M 163.5 203.550781 L 163.855469 203.550781 L 164.03125 203.546875 L 164.382812 203.546875 L 164.5625 203.542969 L 164.738281 203.542969 L 164.914062 203.539062 L 165.09375 203.535156 L 165.269531 203.535156 L 165.621094 203.527344 L 165.800781 203.523438 L 165.976562 203.515625 L 166.332031 203.507812 L 166.507812 203.5 L 166.683594 203.496094 L 167.039062 203.484375 L 167.390625 203.46875 L 167.746094 203.453125 L 168.097656 203.4375 L 168.453125 203.417969 L 169.15625 203.378906 L 169.335938 203.367188 L 169.511719 203.359375 L 169.863281 203.335938 L 170.570312 203.285156 L 170.746094 203.269531 L 170.921875 203.257812 L 171.273438 203.226562 L 171.980469 203.167969 L 172.15625 203.152344 L 172.332031 203.132812 L 172.683594 203.101562 L 173.390625 203.027344 L 174.796875 202.871094 L 174.984375 202.847656 L 175.175781 202.824219 L 175.554688 202.773438 L 176.316406 202.671875 L 177.835938 202.449219 L 178.023438 202.421875 L 178.214844 202.390625 L 178.59375 202.332031 L 179.347656 202.203125 L 180.859375 201.933594 L 181.046875 201.898438 L 181.238281 201.863281 L 181.613281 201.789062 L 182.363281 201.636719 L 183.867188 201.320312 L 186.851562 200.605469 L 187.023438 200.5625 L 187.195312 200.515625 L 187.542969 200.425781 L 188.234375 200.238281 L 189.613281 199.851562 L 192.355469 199.015625 L 192.523438 198.960938 L 192.695312 198.902344 L 193.035156 198.792969 L 193.714844 198.5625 L 195.066406 198.09375 L 197.753906 197.089844 L 197.914062 197.027344 L 198.078125 196.960938 L 198.40625 196.832031 L 199.054688 196.570312 L 200.351562 196.027344 L 202.921875 194.890625 L 203.078125 194.816406 L 203.558594 194.59375 L 204.191406 194.292969 L 205.453125 193.675781 L 207.949219 192.382812 L 208.117188 192.292969 L 208.28125 192.203125 L 208.617188 192.023438 L 209.285156 191.652344 L 210.609375 190.902344 L 213.222656 189.332031 L 213.542969 189.128906 L 213.867188 188.925781 L 214.507812 188.515625 L 215.78125 187.679688 L 218.285156 185.945312 L 218.429688 185.839844 L 218.574219 185.738281 L 218.863281 185.527344 L 219.4375 185.109375 L 220.574219 184.253906 L 222.808594 182.492188 L 222.945312 182.382812 L 223.902344 181.589844 L 224.988281 180.667969 L 227.109375 178.777344 L 227.25 178.644531 L 227.394531 178.515625 L 227.675781 178.253906 L 228.238281 177.726562 L 229.34375 176.65625 L 231.511719 174.460938 L 231.644531 174.320312 L 231.777344 174.183594 L 232.039062 173.902344 L 232.566406 173.339844 L 233.601562 172.199219 L 235.617188 169.867188 L 235.859375 169.578125 L 236.101562 169.285156 L 236.582031 168.699219 L 237.523438 167.515625 L 239.351562 165.105469 L 239.460938 164.953125 L 239.574219 164.800781 L 239.796875 164.492188 L 240.234375 163.878906 L 241.101562 162.636719 L 242.769531 160.113281 L 242.957031 159.816406 L 243.148438 159.515625 L 243.519531 158.917969 L 244.253906 157.710938 L 245.664062 155.269531 L 245.75 155.113281 L 245.832031 154.960938 L 246.003906 154.648438 L 246.339844 154.03125 L 247 152.78125 L 248.261719 150.257812 L 248.34375 150.085938 L 248.425781 149.910156 L 248.589844 149.566406 L 248.910156 148.871094 L 249.542969 147.476562 L 250.730469 144.660156 L 250.800781 144.480469 L 250.875 144.304688 L 251.015625 143.949219 L 251.292969 143.234375 L 251.828125 141.800781 L 252.832031 138.910156 L 252.890625 138.742188 L 252.945312 138.570312 L 253.054688 138.230469 L 253.269531 137.550781 L 253.683594 136.183594 L 253.886719 135.496094 L 254.082031 134.8125 L 254.453125 133.433594 L 254.5 133.257812 L 254.542969 133.085938 L 254.632812 132.742188 L 254.808594 132.046875 L 255.140625 130.660156 L 255.738281 127.863281 L 255.773438 127.695312 L 255.808594 127.523438 L 255.875 127.179688 L 256.003906 126.488281 L 256.246094 125.109375 L 256.273438 124.9375 L 256.304688 124.765625 L 256.359375 124.417969 L 256.46875 123.726562 L 256.667969 122.34375 L 256.691406 122.167969 L 256.714844 121.996094 L 256.761719 121.648438 L 256.851562 120.953125 L 256.871094 120.78125 L 256.890625 120.605469 L 256.933594 120.257812 L 257.011719 119.5625 L 257.027344 119.386719 L 257.046875 119.214844 L 257.082031 118.867188 L 257.148438 118.167969 L 257.164062 117.996094 L 257.179688 117.820312 L 257.210938 117.472656 L 257.269531 116.773438 L 257.28125 116.582031 L 257.296875 116.394531 L 257.324219 116.015625 L 257.335938 115.824219 L 257.351562 115.636719 L 257.375 115.257812 L 257.386719 115.066406 L 257.394531 114.878906 L 257.417969 114.5 L 257.425781 114.308594 L 257.4375 114.121094 L 257.453125 113.738281 L 257.460938 113.550781 L 257.472656 113.359375 L 257.484375 112.980469 L 257.492188 112.789062 L 257.5 112.601562 L 257.511719 112.222656 L 257.519531 111.839844 L 257.527344 111.652344 L 257.53125 111.460938 L 257.535156 111.273438 L 257.535156 111.082031 L 257.539062 110.890625 L 257.542969 110.703125 L 257.542969 110.511719 L 257.546875 110.324219 L 257.546875 110.132812 L 257.550781 109.941406 L 257.550781 109.183594 L 257.546875 108.992188 L 257.546875 108.613281 L 257.542969 108.421875 L 257.542969 108.234375 L 257.535156 107.851562 L 257.53125 107.664062 L 257.527344 107.472656 L 257.523438 107.285156 L 257.515625 106.902344 L 257.507812 106.714844 L 257.503906 106.523438 L 257.488281 106.144531 L 257.484375 105.953125 L 257.476562 105.765625 L 257.460938 105.386719 L 257.453125 105.195312 L 257.441406 105.007812 L 257.421875 104.625 L 257.40625 104.273438 L 257.382812 103.917969 L 257.339844 103.210938 L 257.316406 102.859375 L 257.289062 102.503906 L 257.234375 101.796875 L 257.203125 101.445312 L 257.171875 101.089844 L 257.105469 100.386719 L 256.960938 98.976562 L 256.9375 98.800781 L 256.917969 98.621094 L 256.878906 98.269531 L 256.789062 97.566406 L 256.597656 96.164062 L 256.574219 95.988281 L 256.546875 95.8125 L 256.496094 95.460938 L 256.386719 94.761719 L 256.15625 93.363281 L 256.121094 93.171875 L 256.089844 92.984375 L 256.019531 92.605469 L 255.878906 91.851562 L 255.578125 90.34375 L 255.5 89.96875 L 255.417969 89.589844 L 255.253906 88.839844 L 254.902344 87.34375 L 254.859375 87.15625 L 254.8125 86.972656 L 254.71875 86.597656 L 254.527344 85.855469 L 254.128906 84.371094 L 253.261719 81.421875 L 253.203125 81.242188 L 253.148438 81.0625 L 253.03125 80.703125 L 252.800781 79.984375 L 252.3125 78.554688 L 251.277344 75.722656 L 251.207031 75.546875 L 251.140625 75.371094 L 251 75.019531 L 250.722656 74.320312 L 250.148438 72.925781 L 248.929688 70.164062 L 248.78125 69.84375 L 248.632812 69.527344 L 248.332031 68.890625 L 247.714844 67.625 L 246.421875 65.125 L 246.339844 64.96875 L 246.257812 64.816406 L 246.089844 64.507812 L 245.75 63.890625 L 245.058594 62.664062 L 243.621094 60.246094 L 243.519531 60.082031 L 243.421875 59.921875 L 243.21875 59.597656 L 242.8125 58.953125 L 241.980469 57.671875 L 240.257812 55.152344 L 240.148438 54.996094 L 240.035156 54.839844 L 239.367188 53.914062 L 238.453125 52.691406 L 236.570312 50.289062 L 236.457031 50.148438 L 236.347656 50.011719 L 236.121094 49.738281 L 235.664062 49.1875 L 234.742188 48.101562 L 232.851562 45.972656 L 232.730469 45.839844 L 232.609375 45.710938 L 232.367188 45.449219 L 231.882812 44.929688 L 230.894531 43.902344 L 228.878906 41.890625 L 228.738281 41.757812 L 228.601562 41.621094 L 228.320312 41.355469 L 227.761719 40.828125 L 226.625 39.78125 L 224.300781 37.746094 L 224.15625 37.621094 L 224.007812 37.5 L 223.710938 37.25 L 223.117188 36.757812 L 221.914062 35.789062 L 219.464844 33.914062 L 219.160156 33.6875 L 218.855469 33.464844 L 218.238281 33.019531 L 217 32.148438 L 214.480469 30.464844 L 213.839844 30.058594 L 213.199219 29.65625 L 211.90625 28.863281 L 209.285156 27.347656 L 209.128906 27.261719 L 208.976562 27.175781 L 208.664062 27.003906 L 208.042969 26.667969 L 206.792969 26.007812 L 204.265625 24.742188 L 204.105469 24.667969 L 203.945312 24.589844 L 203.625 24.441406 L 202.984375 24.140625 L 201.699219 23.554688 L 199.097656 22.445312 L 198.921875 22.375 L 198.742188 22.304688 L 198.386719 22.160156 L 197.675781 21.878906 L 196.242188 21.332031 L 193.351562 20.3125 L 193.167969 20.253906 L 192.988281 20.191406 L 192.625 20.074219 L 191.894531 19.839844 L 190.429688 19.386719 L 187.476562 18.558594 L 187.304688 18.511719 L 187.132812 18.46875 L 186.785156 18.378906 L 186.089844 18.203125 L 184.699219 17.871094 L 184.523438 17.832031 L 184.351562 17.789062 L 184 17.710938 L 183.304688 17.558594 L 181.902344 17.269531 L 181.199219 17.128906 L 180.496094 17 L 179.085938 16.75 L 178.910156 16.722656 L 178.734375 16.691406 L 178.378906 16.632812 L 177.671875 16.523438 L 176.257812 16.320312 L 176.082031 16.296875 L 175.910156 16.273438 L 175.5625 16.226562 L 174.867188 16.140625 L 174.691406 16.117188 L 174.519531 16.097656 L 174.167969 16.058594 L 173.472656 15.980469 L 173.296875 15.960938 L 173.125 15.945312 L 172.773438 15.910156 L 172.074219 15.839844 L 171.902344 15.824219 L 171.726562 15.808594 L 171.378906 15.78125 L 170.679688 15.722656 L 170.328125 15.699219 L 169.976562 15.671875 L 169.804688 15.660156 L 169.628906 15.648438 L 169.277344 15.628906 L 169.101562 15.617188 L 168.929688 15.605469 L 168.578125 15.585938 L 167.878906 15.550781 L 167.527344 15.535156 L 167.175781 15.523438 L 166.824219 15.507812 L 166.476562 15.496094 L 166.125 15.488281 L 165.949219 15.480469 L 165.421875 15.46875 L 165.25 15.464844 L 165.074219 15.464844 L 164.691406 15.457031 L 164.503906 15.457031 L 164.3125 15.453125 L 164.121094 15.453125 L 163.929688 15.449219 L 163.171875 15.449219 L 162.980469 15.453125 L 162.597656 15.453125 L 162.410156 15.457031 L 162.21875 15.457031 L 162.027344 15.460938 L 161.839844 15.464844 L 161.457031 15.472656 L 161.269531 15.476562 L 160.886719 15.484375 L 160.507812 15.496094 L 160.125 15.511719 L 159.746094 15.523438 L 159.554688 15.53125 L 159.367188 15.539062 L 158.988281 15.558594 L 158.796875 15.566406 L 158.605469 15.578125 L 158.226562 15.597656 L 158.035156 15.609375 L 157.847656 15.621094 L 157.464844 15.644531 L 157.277344 15.65625 L 157.085938 15.667969 L 156.707031 15.695312 L 155.949219 15.753906 L 155.757812 15.769531 L 155.570312 15.785156 L 155.191406 15.816406 L 154.433594 15.886719 L 152.917969 16.046875 L 152.566406 16.085938 L 152.214844 16.128906 L 151.507812 16.21875 L 150.101562 16.410156 L 149.925781 16.433594 L 149.75 16.460938 L 149.398438 16.511719 L 148.695312 16.621094 L 147.296875 16.855469 L 146.945312 16.917969 L 146.597656 16.980469 L 145.898438 17.113281 L 144.507812 17.386719 L 141.734375 18.003906 L 141.546875 18.046875 L 141.359375 18.09375 L 140.984375 18.183594 L 140.238281 18.371094 L 138.75 18.765625 L 135.792969 19.625 L 135.609375 19.679688 L 135.425781 19.738281 L 135.058594 19.851562 L 134.324219 20.089844 L 132.867188 20.578125 L 129.972656 21.628906 L 129.796875 21.695312 L 129.621094 21.765625 L 129.269531 21.902344 L 128.566406 22.179688 L 127.167969 22.75 L 124.398438 23.964844 L 124.054688 24.121094 L 123.710938 24.28125 L 123.027344 24.601562 L 121.667969 25.265625 L 118.984375 26.652344 L 118.828125 26.734375 L 118.675781 26.820312 L 118.363281 26.988281 L 117.746094 27.328125 L 116.519531 28.023438 L 114.101562 29.46875 L 113.949219 29.5625 L 113.800781 29.652344 L 113.5 29.839844 L 112.90625 30.21875 L 111.722656 30.984375 L 109.394531 32.570312 L 109.238281 32.683594 L 109.082031 32.792969 L 108.769531 33.015625 L 108.152344 33.460938 L 106.921875 34.371094 L 104.511719 36.25 L 104.363281 36.371094 L 104.214844 36.488281 L 103.917969 36.730469 L 103.328125 37.21875 L 102.160156 38.207031 L 99.875 40.238281 L 99.746094 40.359375 L 99.613281 40.480469 L 99.351562 40.722656 L 98.832031 41.210938 L 97.804688 42.199219 L 95.792969 44.222656 L 95.542969 44.480469 L 95.296875 44.738281 L 94.808594 45.257812 L 93.84375 46.308594 L 91.957031 48.449219 L 91.84375 48.582031 L 91.730469 48.71875 L 91.503906 48.984375 L 91.058594 49.519531 L 90.171875 50.605469 L 88.453125 52.8125 L 88.242188 53.09375 L 88.035156 53.371094 L 87.617188 53.933594 L 86.800781 55.070312 L 85.214844 57.375 L 85.109375 57.53125 L 85.007812 57.691406 L 84.796875 58.007812 L 84.386719 58.644531 L 83.574219 59.929688 L 82.015625 62.535156 L 81.640625 63.191406 L 81.269531 63.855469 L 80.542969 65.1875 L 79.15625 67.890625 L 79.078125 68.046875 L 79 68.207031 L 78.84375 68.523438 L 78.539062 69.164062 L 77.941406 70.449219 L 76.804688 73.042969 L 76.734375 73.203125 L 76.667969 73.367188 L 76.53125 73.695312 L 76.265625 74.351562 L 75.746094 75.667969 L 74.765625 78.328125 L 74.640625 78.6875 L 74.515625 79.050781 L 74.269531 79.777344 L 73.796875 81.238281 L 73.738281 81.421875 L 73.683594 81.605469 L 73.570312 81.972656 L 73.347656 82.707031 L 72.921875 84.183594 L 72.871094 84.367188 L 72.820312 84.554688 L 72.71875 84.921875 L 72.519531 85.664062 L 72.144531 87.152344 L 71.460938 90.148438 L 71.425781 90.324219 L 71.390625 90.496094 L 71.316406 90.847656 L 71.179688 91.550781 L 70.914062 92.960938 L 70.882812 93.136719 L 70.851562 93.316406 L 70.792969 93.667969 L 70.675781 94.375 L 70.453125 95.792969 L 70.429688 95.96875 L 70.402344 96.144531 L 70.351562 96.5 L 70.257812 97.210938 L 70.234375 97.390625 L 70.210938 97.566406 L 70.164062 97.921875 L 70.078125 98.632812 L 70.058594 98.8125 L 70.039062 98.988281 L 70 99.347656 L 69.925781 100.058594 L 69.90625 100.238281 L 69.890625 100.414062 L 69.855469 100.773438 L 69.792969 101.488281 L 69.777344 101.660156 L 69.761719 101.835938 L 69.734375 102.1875 L 69.683594 102.886719 L 69.636719 103.589844 L 69.59375 104.289062 L 69.585938 104.464844 L 69.574219 104.640625 L 69.511719 106.046875 L 69.5 106.398438 L 69.496094 106.574219 L 69.492188 106.746094 L 69.480469 107.097656 L 69.460938 107.976562 L 69.460938 108.152344 L 69.457031 108.328125 L 69.457031 108.503906 L 69.453125 108.679688 L 69.453125 108.855469 L 69.449219 109.03125 L 69.449219 109.910156 L 69.453125 110.085938 L 69.453125 110.4375 L 69.457031 110.613281 L 69.457031 110.789062 L 69.492188 112.371094 L 69.503906 112.71875 L 69.519531 113.101562 L 69.535156 113.480469 L 69.550781 113.863281 L 69.570312 114.242188 L 69.578125 114.433594 L 69.589844 114.625 L 69.609375 115.003906 L 69.660156 115.765625 L 69.671875 115.957031 L 69.683594 116.144531 L 69.710938 116.527344 L 69.773438 117.285156 L 69.789062 117.476562 L 69.804688 117.664062 L 69.839844 118.046875 L 69.910156 118.804688 L 69.929688 118.992188 L 69.949219 119.183594 L 69.988281 119.5625 L 70.074219 120.320312 L 70.097656 120.507812 L 70.117188 120.699219 L 70.164062 121.078125 L 70.261719 121.832031 L 70.289062 122.023438 L 70.3125 122.210938 L 70.363281 122.589844 L 70.472656 123.34375 L 70.710938 124.847656 L 70.738281 125.023438 L 70.769531 125.199219 L 70.828125 125.550781 L 70.953125 126.25 L 71.21875 127.648438 L 71.253906 127.824219 L 71.285156 127.996094 L 71.359375 128.347656 L 71.503906 129.042969 L 71.808594 130.433594 L 71.847656 130.605469 L 71.890625 130.777344 L 71.96875 131.125 L 72.136719 131.816406 L 72.484375 133.195312 L 73.242188 135.941406 L 73.351562 136.308594 L 73.460938 136.679688 L 73.6875 137.414062 L 74.15625 138.882812 L 75.167969 141.796875 L 75.234375 141.976562 L 75.300781 142.160156 L 75.4375 142.519531 L 75.710938 143.242188 L 76.277344 144.675781 L 77.476562 147.515625 L 77.550781 147.691406 L 78.097656 148.894531 L 78.742188 150.265625 L 80.101562 152.972656 L 80.1875 153.140625 L 80.277344 153.308594 L 80.453125 153.640625 L 80.8125 154.308594 L 81.542969 155.632812 L 83.070312 158.25 L 83.160156 158.398438 L 83.253906 158.550781 L 83.4375 158.851562 L 83.8125 159.449219 L 84.570312 160.640625 L 86.140625 162.988281 L 86.34375 163.277344 L 86.542969 163.566406 L 86.953125 164.144531 L 87.78125 165.285156 L 89.492188 167.535156 L 89.609375 167.6875 L 89.726562 167.835938 L 89.964844 168.136719 L 90.445312 168.730469 L 91.417969 169.914062 L 93.425781 172.226562 L 93.550781 172.371094 L 93.679688 172.511719 L 93.9375 172.796875 L 94.457031 173.359375 L 95.503906 174.476562 L 97.65625 176.65625 L 97.78125 176.78125 L 97.910156 176.90625 L 98.167969 177.152344 L 98.683594 177.648438 L 99.726562 178.625 L 101.859375 180.53125 L 101.992188 180.648438 L 102.128906 180.765625 L 102.398438 181 L 102.945312 181.460938 L 104.046875 182.375 L 106.289062 184.148438 L 106.425781 184.253906 L 106.566406 184.359375 L 106.84375 184.570312 L 107.40625 184.992188 L 108.535156 185.816406 L 110.835938 187.421875 L 111.125 187.617188 L 111.417969 187.8125 L 112.003906 188.199219 L 113.179688 188.957031 L 115.570312 190.421875 L 115.734375 190.519531 L 115.898438 190.613281 L 116.226562 190.804688 L 116.886719 191.183594 L 118.210938 191.929688 L 120.898438 193.347656 L 121.070312 193.433594 L 121.238281 193.519531 L 121.578125 193.691406 L 122.261719 194.027344 L 123.632812 194.683594 L 126.40625 195.925781 L 126.734375 196.066406 L 127.0625 196.203125 L 127.714844 196.476562 L 129.03125 197.007812 L 131.6875 198.007812 L 131.855469 198.066406 L 132.019531 198.125 L 133.027344 198.476562 L 134.371094 198.925781 L 137.082031 199.761719 L 137.273438 199.820312 L 137.460938 199.875 L 137.84375 199.984375 L 138.605469 200.195312 L 140.328125 200.652344 L 140.519531 200.699219 L 140.90625 200.796875 L 141.675781 200.984375 L 143.21875 201.335938 L 143.410156 201.378906 L 143.605469 201.421875 L 143.992188 201.503906 L 144.765625 201.664062 L 146.320312 201.96875 L 147.101562 202.109375 L 147.882812 202.242188 L 148.078125 202.277344 L 149.25 202.464844 L 168.199219 205.347656 " transform="matrix(1,0,0,1,-59,-5)"/>
<path style="fill-rule:nonzero;fill:rgb(36.84082%,50.67749%,70.979309%);fill-opacity:1;stroke-width:0.03;stroke-linecap:square;stroke-linejoin:miter;stroke:rgb(36.84082%,50.67749%,70.979309%);stroke-opacity:1;stroke-miterlimit:3.25;" d="M 169.28125 211.078125 L 169.070312 210.410156 L 168.632812 208.828125 L 168.417969 207.882812 L 168.25 206.933594 L 168.164062 206.066406 L 168.199219 205.347656 L 168.371094 204.722656 L 168.707031 203.925781 L 169.152344 203.042969 L 169.652344 202.148438 L 170.558594 200.628906 L 170.96875 199.984375 L 149.445312 202.492188 Z M 169.28125 211.078125 " transform="matrix(1,0,0,1,-59,-5)"/>
<path style=" stroke:none;fill-rule:evenodd;fill:rgb(36.84082%,50.67749%,70.979309%);fill-opacity:1;" d="M 115.449219 10 C 115.449219 7.226562 114.347656 4.570312 112.390625 2.609375 C 110.429688 0.652344 107.773438 -0.449219 105 -0.449219 C 102.226562 -0.449219 99.570312 0.652344 97.609375 2.609375 C 95.652344 4.570312 94.550781 7.226562 94.550781 10 C 94.550781 12.773438 95.652344 15.429688 97.609375 17.390625 C 99.570312 19.347656 102.226562 20.449219 105 20.449219 C 107.773438 20.449219 110.429688 19.347656 112.390625 17.390625 C 114.347656 15.429688 115.449219 12.773438 115.449219 10 Z M 115.449219 10 "/>
<path style=" stroke:none;fill-rule:evenodd;fill:rgb(36.84082%,50.67749%,70.979309%);fill-opacity:1;" d="M 115.449219 10 C 115.449219 7.226562 114.347656 4.570312 112.390625 2.609375 C 110.429688 0.652344 107.773438 -0.449219 105 -0.449219 C 102.226562 -0.449219 99.570312 0.652344 97.609375 2.609375 C 95.652344 4.570312 94.550781 7.226562 94.550781 10 C 94.550781 12.773438 95.652344 15.429688 97.609375 17.390625 C 99.570312 19.347656 102.226562 20.449219 105 20.449219 C 107.773438 20.449219 110.429688 19.347656 112.390625 17.390625 C 114.347656 15.429688 115.449219 12.773438 115.449219 10 Z M 115.449219 10 "/>
</g>
</svg>
